<?xml version="1.0" encoding="UTF-8" standalone="no"?>
<!-- Created with Inkscape (http://www.inkscape.org/) -->

<svg
   version="1.0"
   width="103.23419"
   height="103.16637"
   id="svg2546"
   sodipodi:docname="Logo-Hochschule-Fulda-cropped_gray.svg"
   inkscape:version="1.1 (c68e22c387, 2021-05-23)"
   xmlns:inkscape="http://www.inkscape.org/namespaces/inkscape"
   xmlns:sodipodi="http://sodipodi.sourceforge.net/DTD/sodipodi-0.dtd"
   xmlns="http://www.w3.org/2000/svg"
   xmlns:svg="http://www.w3.org/2000/svg">
  <sodipodi:namedview
     id="namedview266"
     pagecolor="#ffffff"
     bordercolor="#666666"
     borderopacity="1.0"
     inkscape:pageshadow="2"
     inkscape:pageopacity="0.0"
     inkscape:pagecheckerboard="0"
     showgrid="false"
     inkscape:zoom="5.5637931"
     inkscape:cx="48.528045"
     inkscape:cy="59.132321"
     inkscape:window-width="1720"
     inkscape:window-height="1403"
     inkscape:window-x="3640"
     inkscape:window-y="0"
     inkscape:window-maximized="0"
     inkscape:current-layer="svg2546" />
  <defs
     id="defs2548">
    <clipPath
       clipPathUnits="userSpaceOnUse"
       id="clipPath1824">
      <rect
         style="fill:#0000ff;fill-opacity:0.246447;fill-rule:evenodd;stroke-width:0.4"
         id="rect1826"
         width="41.309376"
         height="41.266655"
         x="223.53532"
         y="-61.194546"
         transform="scale(1,-1)" />
    </clipPath>
  </defs>
  <g
     transform="matrix(2.5,0,0,-2.5,-558.83831,152.98636)"
     clip-path="url(#clipPath1824)"
     id="g2715">
    <path
       d="m 244.195,19.928 c 11.395,0 20.634,9.239 20.634,20.634 0,11.395 -9.239,20.633 -20.634,20.633 -11.395,0 -20.633,-9.238 -20.633,-20.633 0,-11.395 9.238,-20.634 20.633,-20.634"
       id="path2721"
       style="fill:#9c9c9c;fill-opacity:1;fill-rule:nonzero;stroke:none" />
    <path
       d="m 254.105,41.343 c -0.351,-0.033 -0.712,-0.091 -1.075,-0.174 0.125,-1.755 0.046,-4.531 -0.374,-6.859 0.546,0.158 1.072,0.329 1.581,0.53 0.337,1.523 0.667,4.82 0.697,6.529 -0.351,-0.002 -0.639,-0.008 -0.829,-0.026"
       id="path2723"
       style="fill:#ffffff;fill-opacity:1;fill-rule:nonzero;stroke:none" />
    <path
       d="m 255.35,41.371 c 0.038,-1.652 -0.099,-4.365 -0.427,-6.237 0.562,0.262 1.105,0.573 1.632,0.953 0.245,1.217 0.575,3.898 0.619,5.319 -0.66,-0.03 -1.292,-0.034 -1.824,-0.035"
       id="path2725"
       style="fill:#ffffff;fill-opacity:1;fill-rule:nonzero;stroke:none" />
    <path
       d="m 250.669,40.216 c 0.117,-1.788 0.176,-4.095 -0.315,-6.524 0.725,0.16 0.912,0.234 1.561,0.412 0.405,1.538 0.74,5.119 0.728,6.969 -0.682,-0.189 -1.36,-0.47 -1.974,-0.857"
       id="path2727"
       style="fill:#ffffff;fill-opacity:1;fill-rule:nonzero;stroke:none" />
    <path
       d="m 257.596,41.429 c -0.016,-1.056 -0.162,-3.413 -0.4,-4.836 0.524,0.45 1.033,0.985 1.533,1.628 0.229,1.036 0.48,2.714 0.507,3.387 -0.531,-0.09 -1.089,-0.145 -1.64,-0.179"
       id="path2729"
       style="fill:#ffffff;fill-opacity:1;fill-rule:nonzero;stroke:none" />
    <path
       d="m 248.329,33.965 c 0.098,-0.475 0.661,-0.556 1.301,-0.437 0.439,1.318 0.654,4.488 0.678,6.44 -1.561,-1.145 -2.59,-3.059 -1.979,-6.003"
       id="path2731"
       style="fill:#ffffff;fill-opacity:1;fill-rule:nonzero;stroke:none" />
    <path
       d="m 261.035,42.149 c -0.394,-0.202 -0.872,-0.35 -1.387,-0.46 -0.015,-0.628 -0.111,-1.666 -0.214,-2.479 0.54,0.825 1.072,1.792 1.601,2.939"
       id="path2733"
       style="fill:#ffffff;fill-opacity:1;fill-rule:nonzero;stroke:none" />
    <path
       d="m 259.904,37.168 c 0.884,0.078 1.647,0.084 2.376,0.032 0.009,0.647 -0.009,1.324 -0.071,2.047 -0.54,-0.185 -1.015,-0.382 -1.355,-0.574 -0.47,-0.265 -0.671,0.284 0.037,0.586 0.453,0.193 0.869,0.344 1.264,0.467 -0.081,0.763 -0.193,1.558 -0.36,2.406 -0.046,0.239 -0.212,0.121 -0.319,-0.107 -4.73,-10.006 -8.906,-7.585 -16.755,-11.132 2.103,3.35 2.989,9.668 2.989,9.668 2.473,0.358 4.398,1.68 5.559,3.492 -1.601,-0.62 -3.317,-1.403 -4.502,-2.286 -0.559,-0.417 -0.814,0.177 -0.009,0.761 1.423,1.03 3.257,1.645 4.844,2.098 0.553,1.053 0.865,2.24 0.9,3.483 -1.904,-0.905 -3.957,-2.046 -5.668,-3.611 -0.514,-0.471 -0.936,0.092 -0.177,0.735 1.805,1.528 4.103,2.648 5.845,3.338 -0.028,1.07 -0.262,2.174 -0.723,3.261 -1.54,-1.081 -3.336,-2.286 -5.055,-4.365 -0.445,-0.537 -0.94,-0.05 -0.289,0.702 1.51,1.746 3.62,3.12 5.163,4.064 -0.406,0.848 -0.954,1.682 -1.653,2.479 -1.294,-1.21 -2.369,-2.145 -3.846,-4.539 -0.366,-0.594 -0.93,-0.234 -0.38,0.595 1.305,1.965 2.62,3.197 3.922,4.279 -0.58,0.612 -1.253,1.2 -2.024,1.752 -0.962,-1.172 -1.955,-2.499 -2.555,-4.161 -0.225,-0.624 -0.826,-0.349 -0.404,0.531 0.83,1.734 1.67,2.826 2.622,3.867 -0.638,0.432 -1.339,0.839 -2.106,1.218 -0.532,-1.107 -0.958,-2.206 -1.114,-2.967 -0.134,-0.65 -0.752,-0.506 -0.463,0.393 0.349,1.082 0.816,1.967 1.254,2.729 -0.567,0.267 -1.168,0.518 -1.805,0.751 -0.15,-0.724 -0.24,-1.406 -0.245,-1.889 -0.005,-0.568 -0.589,-0.481 -0.492,0.324 0.074,0.613 0.207,1.189 0.349,1.705 -0.626,0.218 -1.283,0.419 -1.976,0.601 -0.432,0.114 -0.571,-0.151 -0.55,-0.158 -0.047,-0.908 9.557,-12.44 -0.243,-28.5 -1.779,4.877 -9.266,0.127 -14.957,13.683 -0.089,0.215 -0.276,-0.045 -0.413,-0.345 -0.304,-0.662 -0.551,-1.317 -0.751,-1.962 0.626,-0.214 1.465,-0.527 2.08,-0.856 0.679,-0.363 0.431,-0.892 -0.014,-0.587 -0.441,0.302 -1.364,0.7 -2.185,1.02 -0.24,-0.858 -0.398,-1.698 -0.471,-2.509 0.957,0.097 2.386,0.117 3.633,-0.017 0.939,-0.101 0.818,-0.725 0.17,-0.582 -0.847,0.187 -2.446,0.21 -3.83,0.146 -0.052,-0.928 -0.001,-1.817 0.141,-2.656 1.177,0.393 3.156,0.938 4.869,1.024 0.945,0.047 1.019,-0.666 0.357,-0.626 -1.042,0.062 -3.546,-0.442 -5.151,-0.83 0.22,-1.055 0.585,-2.019 1.061,-2.872 1.152,0.747 3.354,2.017 5.173,2.568 0.951,0.288 1.209,-0.421 0.523,-0.549 -1.11,-0.208 -3.889,-1.563 -5.469,-2.401 0.522,-0.836 1.155,-1.549 1.871,-2.111 1.312,1.173 2.907,2.563 5.05,3.51 0.91,0.402 1.24,-0.236 0.586,-0.481 -1.316,-0.493 -2.389,-1.055 -5.277,-3.3 0.729,-0.501 1.531,-0.849 2.376,-1.021 1.224,1.166 2.843,2.629 4.75,3.553 0.895,0.434 1.261,-0.226 0.603,-0.46 -1.121,-0.399 -3.28,-1.943 -4.832,-3.173 2.083,-0.241 4.375,0.583 6.444,2.868 5.027,-2.536 2.446,-6.665 -3.036,-5.186 -2.623,0.707 -4.329,-0.936 -4.17,-1.519 0.06,-0.089 0.008,-0.03 0.339,0.097 0.783,0.297 1.416,0.58 3.032,0.228 2.086,-0.603 2.579,-0.847 4.645,-0.399 -1.631,-1.672 -1.115,-3.797 0.908,-4.454 0.419,-0.136 0.552,0.055 -0.071,0.741 -0.875,0.965 -0.463,2.135 0.866,3.102 0.403,-2.204 3.203,-2.478 6.207,-1.218 3.103,1.303 3.939,2.346 8.54,0.88 0.506,-0.396 0.761,-0.073 0.395,0.268 -2.142,1.876 -5.055,1.964 -8.719,0.791 -6.256,-2.005 -5.74,2.65 1.82,5.338 1.155,-2.09 3.705,-3.301 6.267,-3.141 -1.429,1.308 -3.202,2.711 -4.214,3.123 -0.472,0.192 -0.161,0.866 0.634,0.417 1.731,-0.977 3.073,-2.277 4.163,-3.48 0.932,0.135 1.849,0.464 2.689,0.998 -1.479,1.192 -3.49,2.7 -4.538,3.07 -0.454,0.16 -0.147,0.838 0.611,0.45 1.664,-0.852 3.19,-2.177 4.322,-3.255 0.71,0.525 1.35,1.216 1.878,2.086 -1.473,0.848 -3.274,1.692 -4.293,1.939 -0.678,0.163 -0.384,0.858 0.552,0.52 1.602,-0.578 2.92,-1.314 3.974,-2.038 0.394,0.741 0.709,1.598 0.926,2.581 -1.347,0.407 -2.723,0.702 -3.608,0.727 -0.662,0.018 -0.526,0.722 0.41,0.593 1.343,-0.185 2.374,-0.475 3.304,-0.829 0.114,0.641 0.19,1.329 0.218,2.071 -0.985,-0.006 -1.89,-0.08 -2.545,-0.192 -0.492,-0.085 -0.638,0.509 0.172,0.582"
       id="path2735"
       style="fill:#ffffff;fill-opacity:1;fill-rule:nonzero;stroke:none" />
    <path
       d="m 244.558,53.019 c -1.096,0.821 -3.161,1.95 -4.366,2.413 -0.2,-0.295 -0.406,-0.567 -0.616,-0.793 -0.33,-0.355 -0.625,-0.714 -0.897,-1.073 1.892,-0.622 4.665,-1.775 6.435,-2.779 -0.155,0.776 -0.341,1.52 -0.556,2.232"
       id="path2737"
       style="fill:#ffffff;fill-opacity:1;fill-rule:nonzero;stroke:none" />
    <path
       d="m 244.241,40.63 c 0.563,-0.035 0.738,0.295 0.883,1.04 -1.744,0.979 -5.306,2.402 -7.676,3 1.213,-2.265 3.672,-3.849 6.793,-4.04"
       id="path2739"
       style="fill:#ffffff;fill-opacity:1;fill-rule:nonzero;stroke:none" />
    <path
       d="m 241.996,59.156 c -0.155,-0.427 -0.328,-0.865 -0.515,-1.298 0.428,-0.223 1.031,-0.511 1.52,-0.799 -0.334,0.728 -0.674,1.427 -1.005,2.097"
       id="path2741"
       style="fill:#ffffff;fill-opacity:1;fill-rule:nonzero;stroke:none" />
    <path
       d="m 236.629,48.293 c 1.831,-0.342 6.561,-2.063 8.894,-3.249 0.035,0.67 0.035,1.313 0.017,1.942 -1.567,0.967 -5.83,2.937 -8.419,3.755 -0.3,-0.833 -0.46,-1.655 -0.492,-2.448"
       id="path2743"
       style="fill:#ffffff;fill-opacity:1;fill-rule:nonzero;stroke:none" />
    <path
       d="m 237.197,45.189 c 2.161,-0.473 5.962,-1.818 8.041,-2.851 0.001,0.004 0.001,0.007 0.002,0.011 0.106,0.676 0.174,1.326 0.226,1.964 -1.624,0.899 -6.348,2.934 -8.84,3.492 0.024,-0.927 0.221,-1.808 0.571,-2.616"
       id="path2745"
       style="fill:#ffffff;fill-opacity:1;fill-rule:nonzero;stroke:none" />
    <path
       d="m 243.41,56.136 c -0.497,0.403 -1.5,1 -2.079,1.386 -0.277,-0.611 -0.58,-1.198 -0.902,-1.722 0.833,-0.347 2.722,-1.157 3.838,-1.878 -0.264,0.772 -0.554,1.507 -0.857,2.214"
       id="path2747"
       style="fill:#ffffff;fill-opacity:1;fill-rule:nonzero;stroke:none" />
    <path
       d="m 245.257,50.01 c -1.349,0.837 -4.795,2.442 -6.826,3.214 -0.489,-0.695 -0.873,-1.392 -1.159,-2.084 1.91,-0.529 6.05,-2.165 8.237,-3.385 -0.048,0.781 -0.134,1.533 -0.252,2.255"
       id="path2749"
       style="fill:#ffffff;fill-opacity:1;fill-rule:nonzero;stroke:none" />
    <path
       d="m 238.641,53.579 -0.226,-0.349 c 0.005,-0.002 0.011,-0.004 0.016,-0.006 0.081,0.114 0.162,0.228 0.248,0.342 -0.012,0.004 -0.025,0.009 -0.038,0.013"
       id="path2751"
       style="fill:#ffffff;fill-opacity:1;fill-rule:nonzero;stroke:none" />
    <path
       d="m 235.903,43.541 c -0.744,0.267 -1.491,0.407 -2.124,0.48 0.02,-1.861 0.422,-6.176 0.803,-7.707 0.438,-0.237 0.871,-0.439 1.297,-0.614 -0.315,4.053 -0.16,5.977 0.024,7.841"
       id="path2753"
       style="fill:#ffffff;fill-opacity:1;fill-rule:nonzero;stroke:none" />
    <path
       d="m 238.234,42.053 c -0.553,0.6 -1.22,1.024 -1.91,1.322 -0.145,-2.041 -0.052,-6.538 0.3,-7.818 0.008,-0.031 0.024,-0.091 0.04,-0.154 0.407,-0.142 0.806,-0.264 1.194,-0.374 -0.151,2.482 0.108,5.164 0.376,7.024"
       id="path2755"
       style="fill:#ffffff;fill-opacity:1;fill-rule:nonzero;stroke:none" />
    <path
       d="m 229.547,44.316 c 0.136,-0.793 0.512,-3.313 0.974,-4.562 0.425,-0.521 0.853,-0.985 1.282,-1.397 -0.333,1.676 -0.612,4.864 -0.676,5.821 -0.5,0.031 -1.051,0.076 -1.58,0.138"
       id="path2757"
       style="fill:#ffffff;fill-opacity:1;fill-rule:nonzero;stroke:none" />
    <path
       d="m 238.611,41.587 c -0.189,-1.936 -0.303,-5.301 -0.077,-6.765 0.298,-0.064 0.609,-0.068 0.67,0.177 0.792,3.184 0.361,5.246 -0.593,6.588"
       id="path2759"
       style="fill:#ffffff;fill-opacity:1;fill-rule:nonzero;stroke:none" />
    <path
       d="m 233.37,44.061 c -0.32,0.027 -0.6,0.039 -0.814,0.047 -0.248,0.008 -0.61,0.023 -1.03,0.046 0.168,-1.362 0.507,-4.909 1.097,-6.522 0.406,-0.331 0.81,-0.622 1.211,-0.878 -0.411,2.563 -0.5,5.538 -0.464,7.307"
       id="path2761"
       style="fill:#ffffff;fill-opacity:1;fill-rule:nonzero;stroke:none" />
    <path
       d="m 227.474,44.762 c 0.755,-1.622 1.537,-2.96 2.332,-4.072 -0.236,0.839 -0.48,2.944 -0.61,3.669 -0.711,0.096 -1.35,0.225 -1.722,0.403"
       id="path2763"
       style="fill:#ffffff;fill-opacity:1;fill-rule:nonzero;stroke:none" />
    <path
       d="m 49.358,39.69 h -2.707 l 1.184,6.197 H 41.892 L 40.729,39.69 h -2.707 l 2.707,14.277 h 2.707 l -1.1,-5.711 h 5.944 l 1.078,5.711 h 2.707 z"
       id="path2765"
       style="fill:#000000;fill-opacity:1;fill-rule:nonzero;stroke:none" />
    <path
       d="m 58.918,48.108 c -1.967,0 -3.152,-2.348 -3.152,-4.441 0,-1.142 0.466,-1.861 1.692,-1.861 1.883,0 3.194,2.093 3.194,4.441 0,1.206 -0.508,1.861 -1.734,1.861 m -1.819,-8.629 c -2.94,0 -4.103,1.396 -4.103,3.765 0,4.399 2.94,7.17 6.324,7.17 3.003,0 4.124,-1.608 4.124,-3.829 0,-4.335 -3.046,-7.106 -6.345,-7.106"
       id="path2767"
       style="fill:#000000;fill-opacity:1;fill-rule:nonzero;stroke:none" />
    <path
       d="m 73.236,47.812 c -0.465,0.212 -0.994,0.317 -1.628,0.317 -2.2,0 -3.215,-2.453 -3.215,-4.42 0,-0.994 0.423,-1.861 1.861,-1.861 0.677,0 1.396,0.148 1.967,0.402 l -0.233,-2.348 c -0.719,-0.254 -1.607,-0.423 -2.516,-0.423 -2.813,0 -3.892,1.438 -3.892,3.638 0,4.018 2.369,7.297 6.197,7.297 0.761,0 1.438,-0.106 2.094,-0.276 z"
       id="path2769"
       style="fill:#000000;fill-opacity:1;fill-rule:nonzero;stroke:none" />
    <path
       d="m 84.023,39.69 h -2.665 l 1.269,6.599 c 0.253,1.29 0.042,1.819 -0.635,1.819 -1.417,0 -3.321,-3.299 -3.786,-5.753 L 77.699,39.69 h -2.644 l 2.94,15.44 h 2.643 L 79.814,50.688 C 79.623,49.758 79.306,48.7 78.671,46.945 l 0.043,-0.021 c 0.952,1.882 2.411,3.511 4.42,3.511 2.031,0 2.644,-1.438 2.263,-3.49 z"
       id="path2771"
       style="fill:#000000;fill-opacity:1;fill-rule:nonzero;stroke:none" />
    <path
       d="m 94.555,48.193 c -0.465,0.148 -0.952,0.211 -1.417,0.211 -1.1,0 -1.629,-0.444 -1.629,-1.121 0,-1.29 2.729,-1.903 2.729,-4.23 0,-1.755 -1.523,-3.574 -4.801,-3.574 -0.698,0 -1.312,0.063 -1.84,0.148 l 0.486,2.284 c 0.487,-0.169 1.079,-0.296 1.608,-0.296 1.078,0 1.755,0.423 1.755,1.185 0,1.417 -2.707,1.734 -2.707,4.208 0,1.925 1.501,3.406 4.526,3.406 0.677,0 1.248,-0.043 1.776,-0.149 z"
       id="path2773"
       style="fill:#000000;fill-opacity:1;fill-rule:nonzero;stroke:none" />
    <path
       d="m 104.75,47.812 c -0.466,0.212 -0.995,0.317 -1.629,0.317 -2.2,0 -3.215,-2.453 -3.215,-4.42 0,-0.994 0.423,-1.861 1.861,-1.861 0.677,0 1.396,0.148 1.967,0.402 l -0.233,-2.348 c -0.718,-0.254 -1.607,-0.423 -2.516,-0.423 -2.813,0 -3.892,1.438 -3.892,3.638 0,4.018 2.369,7.297 6.197,7.297 0.761,0 1.438,-0.106 2.094,-0.276 z"
       id="path2775"
       style="fill:#000000;fill-opacity:1;fill-rule:nonzero;stroke:none" />
    <path
       d="m 115.536,39.69 h -2.665 l 1.269,6.599 c 0.254,1.29 0.042,1.819 -0.635,1.819 -1.417,0 -3.32,-3.299 -3.785,-5.753 l -0.508,-2.665 h -2.644 l 2.94,15.44 h 2.644 l -0.825,-4.442 c -0.19,-0.93 -0.508,-1.988 -1.142,-3.743 l 0.042,-0.021 c 0.952,1.882 2.411,3.511 4.42,3.511 2.031,0 2.644,-1.438 2.263,-3.49 z"
       id="path2777"
       style="fill:#000000;fill-opacity:1;fill-rule:nonzero;stroke:none" />
    <path
       d="m 129.346,44.703 c -0.275,-1.438 -0.697,-3.744 -0.909,-5.013 h -2.58 c 0.105,0.635 0.359,1.608 0.93,3.257 l -0.042,0.022 c -0.952,-1.883 -2.411,-3.511 -4.42,-3.511 -2.031,0 -2.644,1.438 -2.263,3.489 l 1.396,7.255 h 2.643 l -1.269,-6.599 c -0.233,-1.29 -0.042,-1.819 0.635,-1.819 1.417,0 3.32,3.3 3.786,5.753 l 0.507,2.665 h 2.644 z"
       id="path2779"
       style="fill:#000000;fill-opacity:1;fill-rule:nonzero;stroke:none" />
    <path
       d="m 134.951,39.69 h -2.644 l 2.94,15.44 h 2.644 z"
       id="path2781"
       style="fill:#000000;fill-opacity:1;fill-rule:nonzero;stroke:none" />
    <path
       d="m 144.68,48.425 c -1.375,0 -2.242,-1.269 -2.623,-2.643 2.432,0.084 3.702,0.592 3.702,1.713 0,0.592 -0.402,0.93 -1.079,0.93 m -2.919,-4.441 c -0.021,-0.233 -0.063,-0.592 -0.063,-0.825 0,-1.206 0.465,-1.565 1.924,-1.565 1.016,0 2.094,0.233 3.067,0.635 v -2.073 c -1.163,-0.444 -2.538,-0.677 -3.934,-0.677 -2.665,0 -3.722,1.227 -3.722,3.553 0,4.399 2.665,7.382 5.943,7.382 2.602,0 3.405,-1.291 3.405,-2.56 0,-2.517 -2.496,-3.743 -6.62,-3.87"
       id="path2783"
       style="fill:#000000;fill-opacity:1;fill-rule:nonzero;stroke:none" />
    <path
       d="m 165.639,51.64 h -4.78 l -0.698,-3.68 h 4.526 l -0.444,-2.263 h -4.505 l -1.142,-6.007 h -2.707 l 2.707,14.277 h 7.487 z"
       id="path2785"
       style="fill:#000000;fill-opacity:1;fill-rule:nonzero;stroke:none" />
    <path
       d="m 176.276,44.703 c -0.274,-1.438 -0.698,-3.744 -0.909,-5.013 h -2.58 c 0.105,0.635 0.359,1.608 0.93,3.257 l -0.042,0.022 c -0.952,-1.883 -2.411,-3.511 -4.42,-3.511 -2.031,0 -2.644,1.438 -2.264,3.489 l 1.397,7.255 h 2.643 l -1.269,-6.599 c -0.232,-1.29 -0.042,-1.819 0.635,-1.819 1.417,0 3.32,3.3 3.786,5.753 l 0.507,2.665 h 2.644 z"
       id="path2787"
       style="fill:#000000;fill-opacity:1;fill-rule:nonzero;stroke:none" />
    <path
       d="m 181.881,39.69 h -2.644 l 2.94,15.44 h 2.644 z"
       id="path2789"
       style="fill:#000000;fill-opacity:1;fill-rule:nonzero;stroke:none" />
    <path
       d="m 192.202,48.277 c -2.432,0 -3.553,-2.834 -3.553,-5.033 0,-1.037 0.275,-1.46 0.804,-1.46 1.501,0 3.384,3.448 3.806,5.669 l 0.128,0.676 c -0.339,0.085 -0.72,0.148 -1.185,0.148 m 2.94,-4.801 c -0.211,-1.163 -0.508,-2.813 -0.677,-3.786 h -2.601 c 0.148,0.825 0.486,1.883 0.973,3.342 h -0.043 c -0.846,-1.544 -2.305,-3.574 -4.399,-3.574 -1.607,0 -2.475,1.036 -2.475,3.278 0,3.976 2.137,7.656 6.747,7.656 0.36,0 0.677,-0.021 1.121,-0.084 l 0.91,4.822 h 2.665 z"
       id="path2791"
       style="fill:#000000;fill-opacity:1;fill-rule:nonzero;stroke:none" />
    <path
       d="m 204.723,48.277 c -2.432,0 -3.554,-2.834 -3.554,-5.033 0,-1.037 0.276,-1.46 0.804,-1.46 1.502,0 3.384,3.448 3.807,5.669 l 0.127,0.676 c -0.338,0.085 -0.719,0.148 -1.184,0.148 m 2.263,-8.587 h -2.623 c 0.191,0.825 0.508,1.883 0.994,3.342 h -0.042 c -0.846,-1.544 -2.305,-3.574 -4.399,-3.574 -1.608,0 -2.475,1.036 -2.475,3.278 0,3.976 2.136,7.656 6.747,7.656 1.269,0 2.538,-0.084 3.722,-0.317 -0.93,-4.885 -1.48,-7.614 -1.924,-10.385"
       id="path2793"
       style="fill:#000000;fill-opacity:1;fill-rule:nonzero;stroke:none" />
    <path
       d="m 76.302,26.688 c -0.371,-1.98 -1.564,-2.891 -3.465,-2.891 -2.216,0 -2.61,1.226 -2.318,2.756 l 0.934,4.95 h 1.013 L 71.51,26.508 c -0.225,-1.215 0.123,-1.856 1.473,-1.856 1.294,0 2.036,0.562 2.34,2.148 l 0.9,4.703 h 0.99 z"
       id="path2795"
       style="fill:#000000;fill-opacity:1;fill-rule:nonzero;stroke:none" />
    <path
       d="m 82.219,23.909 h -0.99 l 0.687,3.578 c 0.169,0.877 0.011,1.26 -0.495,1.26 -1.035,0 -2.183,-2.194 -2.442,-3.578 l -0.236,-1.26 h -0.99 l 0.563,2.925 c 0.146,0.799 0.348,1.845 0.495,2.666 h 0.978 c -0.067,-0.371 -0.225,-1.012 -0.618,-2.205 h 0.022 c 0.529,1.182 1.418,2.318 2.588,2.318 1.035,0 1.383,-0.732 1.17,-1.901 z"
       id="path2797"
       style="fill:#000000;fill-opacity:1;fill-rule:nonzero;stroke:none" />
    <path
       d="m 86.022,30.423 c -0.372,0 -0.641,0.292 -0.619,0.641 0.011,0.383 0.338,0.675 0.709,0.675 0.36,0 0.641,-0.281 0.619,-0.63 -0.023,-0.382 -0.349,-0.686 -0.709,-0.686 m -0.833,-6.514 h -0.99 l 1.069,5.591 h 0.99 z"
       id="path2799"
       style="fill:#000000;fill-opacity:1;fill-rule:nonzero;stroke:none" />
    <path
       d="m 89.43,23.909 h -1.035 l -0.99,5.591 h 1.069 l 0.518,-3.285 c 0.056,-0.349 0.101,-0.742 0.123,-1.08 h 0.012 l 2.362,4.602 0.934,-0.327 z"
       id="path2801"
       style="fill:#000000;fill-opacity:1;fill-rule:nonzero;stroke:none" />
    <path
       d="m 95.55,28.837 c -0.889,0 -1.485,-0.777 -1.744,-1.722 1.733,0.068 2.498,0.416 2.498,1.091 0,0.406 -0.304,0.631 -0.754,0.631 m -1.867,-2.464 c -0.034,-0.169 -0.057,-0.45 -0.057,-0.653 0,-0.866 0.304,-1.091 1.204,-1.091 0.529,0 1.091,0.124 1.575,0.326 v -0.81 c -0.54,-0.214 -1.192,-0.337 -1.924,-0.337 -1.282,0 -1.878,0.551 -1.878,1.811 0,2.171 1.203,3.983 3.06,3.983 1.192,0 1.642,-0.608 1.642,-1.272 0,-1.203 -1.226,-1.867 -3.622,-1.957"
       id="path2803"
       style="fill:#000000;fill-opacity:1;fill-rule:nonzero;stroke:none" />
    <path
       d="m 101.738,28.623 c -1.036,0.292 -2.138,-1.901 -2.431,-3.454 l -0.236,-1.26 h -0.99 l 1.058,5.591 h 0.967 c -0.09,-0.484 -0.247,-1.08 -0.574,-2.059 l 0.023,-0.011 c 0.63,1.361 1.305,2.352 2.385,2.172 z"
       id="path2805"
       style="fill:#000000;fill-opacity:1;fill-rule:nonzero;stroke:none" />
    <path
       d="m 105.484,28.702 c -0.27,0.089 -0.563,0.135 -0.844,0.135 -0.731,0 -1.114,-0.349 -1.114,-0.822 0,-0.888 1.699,-1.125 1.699,-2.385 0,-0.933 -0.821,-1.822 -2.408,-1.822 -0.371,0 -0.675,0.022 -0.956,0.079 l 0.18,0.9 c 0.293,-0.09 0.597,-0.147 0.911,-0.147 0.732,0 1.227,0.293 1.227,0.878 0,0.888 -1.688,1.035 -1.688,2.385 0,0.956 0.765,1.699 2.217,1.699 0.393,0 0.675,-0.034 0.956,-0.079 z"
       id="path2807"
       style="fill:#000000;fill-opacity:1;fill-rule:nonzero;stroke:none" />
    <path
       d="m 108.341,30.423 c -0.371,0 -0.641,0.292 -0.619,0.641 0.012,0.383 0.338,0.675 0.709,0.675 0.36,0 0.641,-0.281 0.619,-0.63 -0.023,-0.382 -0.349,-0.686 -0.709,-0.686 m -0.832,-6.514 h -0.99 l 1.069,5.591 h 0.989 z"
       id="path2809"
       style="fill:#000000;fill-opacity:1;fill-rule:nonzero;stroke:none" />
    <path
       d="m 113.133,28.713 h -1.518 l -0.551,-2.925 c -0.158,-0.866 -0.045,-1.103 0.506,-1.103 0.315,0 0.551,0.034 0.776,0.09 l -0.068,-0.844 c -0.326,-0.067 -0.72,-0.112 -1.046,-0.112 -1.147,0 -1.44,0.54 -1.204,1.811 l 0.597,3.083 h -1.136 l 0.157,0.787 h 1.125 l 0.349,1.812 1.046,0.236 -0.394,-2.048 h 1.519 z"
       id="path2811"
       style="fill:#000000;fill-opacity:1;fill-rule:nonzero;stroke:none" />
    <path
       d="m 114.731,22.064 c -0.664,-0.675 -1.361,-1.012 -2.025,-1.012 -0.281,0 -0.562,0.022 -0.787,0.078 l 0.168,0.911 c 0.225,-0.078 0.462,-0.112 0.709,-0.112 0.394,0 0.855,0.236 1.238,0.641 0.438,0.473 0.63,0.979 0.63,1.789 0,1.485 -0.316,3.33 -0.822,5.141 h 1.125 c 0.372,-1.451 0.63,-3.195 0.63,-4.387 0,-0.203 -0.033,-0.473 -0.078,-0.698 h 0.011 c 0.889,1.564 1.654,3.162 2.531,5.311 l 0.945,-0.282 c -1.474,-3.454 -2.891,-5.974 -4.275,-7.38"
       id="path2813"
       style="fill:#000000;fill-opacity:1;fill-rule:nonzero;stroke:none" />
    <path
       d="m 124.923,28.747 c -1.226,0 -2.047,-1.373 -2.047,-2.779 0,-0.833 0.337,-1.294 1.181,-1.294 1.091,0 2.048,1.17 2.048,2.801 0,0.822 -0.372,1.272 -1.182,1.272 m -1.035,-4.939 c -1.406,0 -2.047,0.708 -2.047,1.991 0,2.228 1.417,3.803 3.24,3.803 1.474,0 2.081,-0.833 2.081,-2.014 0,-2.307 -1.586,-3.78 -3.274,-3.78"
       id="path2815"
       style="fill:#000000;fill-opacity:1;fill-rule:nonzero;stroke:none" />
    <path
       d="m 132.629,31.255 c -0.247,0.068 -0.551,0.113 -0.787,0.113 -0.81,0 -1.26,-0.428 -1.44,-1.485 L 130.334,29.5 h 1.519 l -0.169,-0.787 h -1.507 l -0.968,-5.085 c -0.349,-1.834 -1.204,-2.576 -2.565,-2.576 -0.326,0 -0.664,0.033 -0.967,0.101 l 0.247,0.855 c 0.259,-0.079 0.563,-0.113 0.788,-0.113 0.798,0 1.248,0.405 1.496,1.71 l 0.979,5.108 h -1.137 l 0.169,0.787 h 1.114 l 0.079,0.394 c 0.27,1.53 1.08,2.295 2.531,2.295 0.315,0 0.619,-0.034 0.934,-0.101 z"
       id="path2817"
       style="fill:#000000;fill-opacity:1;fill-rule:nonzero;stroke:none" />
    <path
       d="m 138.333,29.219 c -0.068,0.36 -0.113,0.754 -0.135,1.125 h -0.023 c -0.146,-0.349 -0.337,-0.742 -0.551,-1.136 l -1.462,-2.7 h 2.621 z m 0.843,-5.31 -0.27,1.778 h -3.172 l -0.956,-1.778 h -1.08 l 4.162,7.594 h 1.125 l 1.283,-7.594 z"
       id="path2819"
       style="fill:#000000;fill-opacity:1;fill-rule:nonzero;stroke:none" />
    <path
       d="m 145.139,28.747 c -1.058,0 -2.194,-2.239 -2.453,-3.556 l -0.09,-0.427 c 0.237,-0.079 0.574,-0.135 0.81,-0.135 1.643,0 2.306,1.71 2.306,3.094 0,0.731 -0.225,1.024 -0.573,1.024 m -1.924,-4.917 c -0.281,0 -0.529,0.023 -0.787,0.068 L 141.91,21.13 h -0.99 l 1.586,8.37 h 0.99 c -0.101,-0.484 -0.247,-1.035 -0.63,-2.238 l 0.023,-0.012 c 0.573,1.316 1.451,2.363 2.598,2.363 0.811,0 1.249,-0.518 1.249,-1.699 0,-2.059 -1.068,-4.084 -3.521,-4.084"
       id="path2821"
       style="fill:#000000;fill-opacity:1;fill-rule:nonzero;stroke:none" />
    <path
       d="m 151.304,28.747 c -1.058,0 -2.194,-2.239 -2.452,-3.556 l -0.091,-0.427 c 0.237,-0.079 0.574,-0.135 0.81,-0.135 1.643,0 2.307,1.71 2.307,3.094 0,0.731 -0.225,1.024 -0.574,1.024 M 149.38,23.83 c -0.281,0 -0.528,0.023 -0.787,0.068 l -0.518,-2.768 h -0.99 l 1.586,8.37 h 0.99 c -0.101,-0.484 -0.247,-1.035 -0.63,-2.238 l 0.023,-0.012 c 0.574,1.316 1.451,2.363 2.599,2.363 0.81,0 1.248,-0.518 1.248,-1.699 0,-2.059 -1.068,-4.084 -3.521,-4.084"
       id="path2823"
       style="fill:#000000;fill-opacity:1;fill-rule:nonzero;stroke:none" />
    <path
       d="m 154.769,23.909 h -0.99 l 1.563,8.213 h 0.991 z"
       id="path2825"
       style="fill:#000000;fill-opacity:1;fill-rule:nonzero;stroke:none" />
    <path
       d="m 158.571,30.423 c -0.371,0 -0.641,0.292 -0.619,0.641 0.012,0.383 0.338,0.675 0.71,0.675 0.359,0 0.64,-0.281 0.618,-0.63 -0.022,-0.382 -0.349,-0.686 -0.709,-0.686 m -0.832,-6.514 h -0.99 l 1.069,5.591 h 0.99 z"
       id="path2827"
       style="fill:#000000;fill-opacity:1;fill-rule:nonzero;stroke:none" />
    <path
       d="m 162.666,28.837 c -0.889,0 -1.485,-0.777 -1.743,-1.722 1.732,0.068 2.497,0.416 2.497,1.091 0,0.406 -0.304,0.631 -0.754,0.631 m -1.867,-2.464 c -0.034,-0.169 -0.057,-0.45 -0.057,-0.653 0,-0.866 0.304,-1.091 1.204,-1.091 0.529,0 1.091,0.124 1.575,0.326 v -0.81 c -0.54,-0.214 -1.192,-0.337 -1.923,-0.337 -1.283,0 -1.879,0.551 -1.879,1.811 0,2.171 1.204,3.983 3.06,3.983 1.192,0 1.642,-0.608 1.642,-1.272 0,-1.203 -1.226,-1.867 -3.622,-1.957"
       id="path2829"
       style="fill:#000000;fill-opacity:1;fill-rule:nonzero;stroke:none" />
    <path
       d="m 168.505,28.791 c -1.665,0 -2.317,-1.721 -2.317,-3.104 0,-0.732 0.225,-1.024 0.573,-1.024 1.058,0 2.205,2.239 2.464,3.577 l 0.079,0.45 c -0.225,0.057 -0.484,0.101 -0.799,0.101 m 1.26,-2.868 c -0.146,-0.776 -0.292,-1.553 -0.371,-2.014 h -0.99 c 0.09,0.484 0.304,1.226 0.641,2.272 l -0.022,0.012 c -0.406,-0.866 -1.249,-2.396 -2.61,-2.396 -0.811,0 -1.249,0.517 -1.249,1.698 0,2.059 1.069,4.095 3.51,4.095 0.281,0 0.506,-0.022 0.787,-0.067 l 0.484,2.599 h 1.001 z"
       id="path2831"
       style="fill:#000000;fill-opacity:1;fill-rule:nonzero;stroke:none" />
    <path
       d="m 178.337,30.58 c -0.371,0.135 -0.776,0.18 -1.057,0.18 -1.125,0 -1.631,-0.641 -1.631,-1.248 0,-1.373 2.317,-1.418 2.317,-3.218 0,-1.406 -1.238,-2.497 -3.004,-2.497 -0.405,0 -0.877,0.044 -1.249,0.157 l 0.192,0.99 c 0.315,-0.135 0.765,-0.236 1.147,-0.236 1.17,0 1.834,0.573 1.834,1.417 0,1.316 -2.306,1.328 -2.306,3.15 0,1.249 0.979,2.34 2.801,2.34 0.382,0 0.72,-0.022 1.147,-0.112 z"
       id="path2833"
       style="fill:#000000;fill-opacity:1;fill-rule:nonzero;stroke:none" />
    <path
       d="m 183.287,28.544 c -0.304,0.135 -0.63,0.214 -1.024,0.214 -1.417,0 -2.081,-1.598 -2.081,-2.869 0,-0.585 0.191,-1.181 1.17,-1.181 0.439,0 0.911,0.101 1.26,0.27 l -0.067,-0.889 c -0.394,-0.146 -0.912,-0.27 -1.474,-0.27 -1.451,0 -1.946,0.787 -1.946,1.845 0,2.138 1.203,3.926 3.206,3.926 0.461,0 0.832,-0.067 1.181,-0.168 z"
       id="path2835"
       style="fill:#000000;fill-opacity:1;fill-rule:nonzero;stroke:none" />
    <path
       d="m 185.717,30.423 c -0.371,0 -0.641,0.292 -0.619,0.641 0.012,0.383 0.338,0.675 0.709,0.675 0.36,0 0.641,-0.281 0.619,-0.63 -0.023,-0.382 -0.349,-0.686 -0.709,-0.686 m -0.832,-6.514 h -0.99 l 1.068,5.591 h 0.99 z"
       id="path2837"
       style="fill:#000000;fill-opacity:1;fill-rule:nonzero;stroke:none" />
    <path
       d="m 189.812,28.837 c -0.889,0 -1.485,-0.777 -1.744,-1.722 1.732,0.068 2.497,0.416 2.497,1.091 0,0.406 -0.303,0.631 -0.753,0.631 m -1.868,-2.464 c -0.033,-0.169 -0.056,-0.45 -0.056,-0.653 0,-0.866 0.304,-1.091 1.204,-1.091 0.529,0 1.091,0.124 1.575,0.326 v -0.81 c -0.54,-0.214 -1.193,-0.337 -1.924,-0.337 -1.282,0 -1.879,0.551 -1.879,1.811 0,2.171 1.204,3.983 3.06,3.983 1.193,0 1.643,-0.608 1.643,-1.272 0,-1.203 -1.227,-1.867 -3.623,-1.957"
       id="path2839"
       style="fill:#000000;fill-opacity:1;fill-rule:nonzero;stroke:none" />
    <path
       d="m 196.809,23.909 h -0.99 l 0.687,3.578 c 0.168,0.877 0.011,1.26 -0.496,1.26 -1.035,0 -2.182,-2.194 -2.441,-3.578 l -0.236,-1.26 h -0.99 l 0.563,2.925 c 0.146,0.799 0.348,1.845 0.494,2.666 h 0.979 c -0.067,-0.371 -0.225,-1.012 -0.619,-2.205 h 0.023 c 0.529,1.182 1.417,2.318 2.588,2.318 1.035,0 1.383,-0.732 1.169,-1.901 z"
       id="path2841"
       style="fill:#000000;fill-opacity:1;fill-rule:nonzero;stroke:none" />
    <path
       d="m 202.93,28.544 c -0.305,0.135 -0.631,0.214 -1.024,0.214 -1.418,0 -2.082,-1.598 -2.082,-2.869 0,-0.585 0.191,-1.181 1.17,-1.181 0.439,0 0.912,0.101 1.261,0.27 l -0.068,-0.889 c -0.394,-0.146 -0.912,-0.27 -1.474,-0.27 -1.451,0 -1.946,0.787 -1.946,1.845 0,2.138 1.204,3.926 3.206,3.926 0.461,0 0.833,-0.067 1.181,-0.168 z"
       id="path2843"
       style="fill:#000000;fill-opacity:1;fill-rule:nonzero;stroke:none" />
    <path
       d="m 206.495,28.837 c -0.888,0 -1.485,-0.777 -1.744,-1.722 1.733,0.068 2.498,0.416 2.498,1.091 0,0.406 -0.304,0.631 -0.754,0.631 m -1.867,-2.464 c -0.034,-0.169 -0.057,-0.45 -0.057,-0.653 0,-0.866 0.304,-1.091 1.204,-1.091 0.529,0 1.092,0.124 1.575,0.326 v -0.81 c -0.54,-0.214 -1.192,-0.337 -1.924,-0.337 -1.282,0 -1.878,0.551 -1.878,1.811 0,2.171 1.203,3.983 3.06,3.983 1.192,0 1.642,-0.608 1.642,-1.272 0,-1.203 -1.226,-1.867 -3.622,-1.957"
       id="path2845"
       style="fill:#000000;fill-opacity:1;fill-rule:nonzero;stroke:none" />
    <path
       d="m 212.39,28.702 c -0.27,0.089 -0.562,0.135 -0.844,0.135 -0.731,0 -1.113,-0.349 -1.113,-0.822 0,-0.888 1.698,-1.125 1.698,-2.385 0,-0.933 -0.821,-1.822 -2.407,-1.822 -0.371,0 -0.675,0.022 -0.956,0.079 l 0.18,0.9 c 0.292,-0.09 0.596,-0.147 0.911,-0.147 0.731,0 1.226,0.293 1.226,0.878 0,0.888 -1.687,1.035 -1.687,2.385 0,0.956 0.764,1.699 2.216,1.699 0.394,0 0.675,-0.034 0.956,-0.079 z"
       id="path2847"
       style="fill:#000000;fill-opacity:1;fill-rule:nonzero;stroke:none" />
  </g>
</svg>
